<?xml version="1.0" encoding="UTF-8" standalone="no"?>
<!-- Uploaded to: SVG Repo, www.svgrepo.com, Generator: SVG Repo Mixer Tools -->

<svg
   width="800px"
   height="800px"
   viewBox="0 0 24 24"
   fill="none"
   version="1.1"
   id="svg4"
   sodipodi:docname="mouse-scroll.svg"
   inkscape:version="1.2.2 (b0a8486541, 2022-12-01)"
   xmlns:inkscape="http://www.inkscape.org/namespaces/inkscape"
   xmlns:sodipodi="http://sodipodi.sourceforge.net/DTD/sodipodi-0.dtd"
   xmlns="http://www.w3.org/2000/svg"
   xmlns:svg="http://www.w3.org/2000/svg">
  <defs
     id="defs8" />
  <sodipodi:namedview
     id="namedview6"
     pagecolor="#505050"
     bordercolor="#eeeeee"
     borderopacity="1"
     inkscape:showpageshadow="0"
     inkscape:pageopacity="0"
     inkscape:pagecheckerboard="0"
     inkscape:deskcolor="#505050"
     showgrid="false"
     inkscape:zoom="0.9775"
     inkscape:cx="400"
     inkscape:cy="400"
     inkscape:window-width="1920"
     inkscape:window-height="1011"
     inkscape:window-x="0"
     inkscape:window-y="0"
     inkscape:window-maximized="1"
     inkscape:current-layer="svg4" />
  <path
     d="m 3.25,10 v 4 h 1.5 v -4 z m 17.5,4 v -4 h -1.5 v 4 z m 0,-4 C 20.75,5.16751 16.8325,1.25 12,1.25 v 1.5 c 4.0041,0 7.25,3.24594 7.25,7.25 z M 12,22.75 c 4.8325,0 8.75,-3.9175 8.75,-8.75 h -1.5 c 0,4.0041 -3.2459,7.25 -7.25,7.25 z M 3.25,14 c 0,4.8325 3.91751,8.75 8.75,8.75 v -1.5 C 7.99594,21.25 4.75,18.0041 4.75,14 Z m 1.5,-4 C 4.75,5.99594 7.99594,2.75 12,2.75 V 1.25 C 7.16751,1.25 3.25,5.16751 3.25,10 Z"
     fill="#000000"
     id="path2"
     sodipodi:nodetypes="cccccccccccccccccccccccccccccc" />
  <circle
     style="fill:#000000;fill-opacity:0;stroke:#000000;stroke-width:0.99999;stroke-dasharray:none;stroke-opacity:1"
     id="path319"
     cx="12"
     cy="8.8162165"
     r="2.6535327" />
</svg>
